<svg width="30" height="34" viewBox="0 0 30 34" fill="none" xmlns="http://www.w3.org/2000/svg">
<path fill-rule="evenodd" clip-rule="evenodd" d="M3.48391 9.63386L2.83201 23.2097L9.20012 27.3529L9.05297 30.4173L0.0879081 24.6051L0.0816383 24.6048L0.887485 7.82291L13.0739 1.71137L13.0343 1.68607L15.7552 0.283322L18.915 2.36935L18.9102 2.46895L18.6599 7.68109L21.8167 9.7311L21.8528 9.73283L21.8517 9.75617L25.0298 11.8197L24.8824 14.8903L21.7042 12.8268L21.1359 24.6611L18.3826 26.2152L19.1066 11.139L15.9161 9.07026L15.9098 9.06996L16.1658 3.73953L15.6315 3.38317L3.48391 9.63386ZM29.3397 9.09556L29.3459 9.09586L28.5358 25.9665L14.2959 33.2897L14.2956 33.2959L10.4996 30.8502L11.2318 15.6013L9.07404 19.9669L7.40899 15.5769L7.01328 23.8176L4.40781 22.195L4.96764 10.5365C6.01988 10.0208 7.17639 9.55846 8.00127 9.19717L9.51431 14.299L11.6299 7.34352L14.3852 5.81296L13.2498 29.4582L14.4416 30.2237L25.93 24.3188L26.5943 10.4846L20.2262 6.34146L20.3734 3.27549L29.3397 9.09556Z" fill="white"/>
</svg>
