<svg width="46" height="50" viewBox="0 0 46 50" fill="none" xmlns="http://www.w3.org/2000/svg">
<path d="M34.3228 21.6446V12.1822C34.3228 11.9114 34.1977 11.6611 34.0207 11.4632L23.412 0.323105C23.2141 0.114822 22.9325 0 22.6514 0H5.83163C2.72647 0 0.246155 2.5322 0.246155 5.63774V37.4428C0.246155 40.5483 2.72647 43.0389 5.83163 43.0389H19.1083C21.6195 47.2073 26.1842 50 31.384 50C39.2831 50 45.7337 43.5806 45.7337 35.6712C45.7444 28.7621 40.7838 22.9889 34.3228 21.6446ZM23.6936 3.65791L30.811 11.1504H26.1945C24.8189 11.1504 23.6936 10.0147 23.6936 8.63915V3.65791ZM5.83163 40.9546C3.88309 40.9546 2.33051 39.3913 2.33051 37.4428V5.63774C2.33051 3.67851 3.88309 2.08435 5.83163 2.08435H21.6092V8.63915C21.6092 11.1713 23.6623 13.2347 26.1945 13.2347H32.2385V21.3734C31.9261 21.3631 31.6758 21.3318 31.405 21.3318C27.768 21.3318 24.4229 22.7284 21.901 24.9168H8.66634C8.09299 24.9168 7.62416 25.3857 7.62416 25.9586C7.62416 26.532 8.09299 27.0008 8.66634 27.0008H19.9628C19.2227 28.043 18.6078 29.0852 18.1287 30.2315H8.66634C8.09299 30.2315 7.62416 30.7003 7.62416 31.2737C7.62416 31.8466 8.09299 32.3158 8.66634 32.3158H17.4512C17.1907 33.358 17.0552 34.5146 17.0552 35.6712C17.0552 37.5469 17.4199 39.402 18.0764 40.9653H5.83163V40.9546ZM31.3947 47.9263C24.6419 47.9263 19.1499 42.4343 19.1499 35.6815C19.1499 28.9288 24.6312 23.4367 31.3947 23.4367C38.1578 23.4367 43.6391 28.9288 43.6391 35.6815C43.6391 42.4343 38.1475 47.9263 31.3947 47.9263Z" fill="white"/>
<path d="M8.66632 21.78H19.2227C19.7961 21.78 20.2649 21.3108 20.2649 20.7378C20.2649 20.1644 19.7961 19.6956 19.2227 19.6956H8.66632C8.09297 19.6956 7.62415 20.1644 7.62415 20.7378C7.62415 21.3108 8.09297 21.78 8.66632 21.78Z" fill="white"/>
<path d="M37.0637 30.9921L29.1852 38.2034L25.3297 34.0141C24.944 33.5869 24.2768 33.5663 23.8602 33.9515C23.433 34.3372 23.412 35.0044 23.7977 35.421L28.362 40.3709C28.5703 40.5899 28.8518 40.7047 29.1333 40.7047C29.3832 40.7047 29.6334 40.6109 29.8417 40.4335L38.4808 32.5138C38.9081 32.1281 38.9394 31.4609 38.5434 31.0444C38.1474 30.6274 37.4909 30.5961 37.0637 30.9921Z" fill="white"/>
</svg>
