<svg width="50" height="50" viewBox="0 0 50 50" fill="none" xmlns="http://www.w3.org/2000/svg">
<g clip-path="url(#clip0_1_319)">
<path d="M13.8016 38.2539L24.5311 45.5693C24.8251 45.7687 25.2108 45.7687 25.5043 45.5693L36.2372 38.2543C39.2508 36.1992 41.7092 31.563 41.7092 27.9185V12.5687C41.7066 12.2394 41.5174 11.9399 41.2213 11.7957L25.4017 4.02722C25.162 3.90987 24.8814 3.90987 24.6417 4.02722L8.82044 11.7721C8.52308 11.916 8.33339 12.2154 8.33044 12.5456V27.9185C8.33044 31.563 10.7884 36.1992 13.8016 38.2539ZM10.0532 13.0827L25.0181 5.76009L39.9864 13.1054V27.9185C39.9864 30.9544 37.7778 35.1187 35.2668 36.8306L25.0232 43.815L14.774 36.8306C12.2635 35.1187 10.0532 30.9544 10.0532 27.9185V13.0827Z" fill="white"/>
<path d="M11.8008 41.1758L24.5273 49.8502C24.8221 50.05 25.2086 50.05 25.5035 49.8502L38.2375 41.1762C42.168 38.4965 45.2624 32.6729 45.2624 27.9185V10.3656C45.2565 10.0346 45.0643 9.73558 44.7661 9.59216L25.4076 0.0878882C25.167 -0.0294588 24.8856 -0.0294588 24.645 0.0878882L5.27647 9.56608C4.97701 9.70866 4.78395 10.0081 4.77722 10.3396V27.9185C4.77722 32.6729 7.87072 38.4965 11.8008 41.1758ZM6.49999 10.8767L25.0202 1.82075L43.54 10.9019V27.9185C43.54 32.1623 40.7771 37.3605 37.268 39.7529L25.0269 48.0959L12.7753 39.7524C9.26711 37.3609 6.49999 32.1623 6.49999 27.9185V10.8767Z" fill="white"/>
<path d="M21.9839 32.9354C22.1458 33.0965 22.3658 33.1857 22.5941 33.1831H22.5963C22.8234 33.1861 23.0429 33.0978 23.2053 32.9388L35.4439 20.7036C35.6058 20.5425 35.6966 20.3238 35.6966 20.0954C35.6966 19.867 35.6058 19.6483 35.4439 19.4872L33.0077 17.0519C32.6713 16.7154 32.1258 16.7154 31.7893 17.0519L22.611 26.2306L18.2653 21.8421C17.9306 21.504 17.385 21.5014 17.0469 21.8362L14.5986 24.2606C14.4362 24.4216 14.3445 24.6404 14.3433 24.8687C14.3424 25.0959 14.432 25.3142 14.5927 25.4752L21.9839 32.9354ZM17.6471 23.6671L21.9961 28.0703C22.1559 28.2365 22.3754 28.3328 22.6059 28.3374H22.608C22.8381 28.3332 23.0568 28.2382 23.2171 28.0733L32.3987 18.8862L33.6168 20.1013L22.5992 31.1176L16.4231 24.8805L17.6471 23.6671Z" fill="white"/>
</g>
<defs>
<clipPath id="clip0_1_319">
<rect width="50" height="50" fill="white"/>
</clipPath>
</defs>
</svg>
