<svg width="47" height="47" viewBox="0 0 47 47" fill="none" xmlns="http://www.w3.org/2000/svg">
<g clip-path="url(#clip0_1_360)">
<path d="M47 27.9062C47 26.7293 46.5319 25.6326 45.7251 24.8238C46.6397 23.8231 47.1058 22.4816 46.9784 21.0854C46.7493 18.5963 44.507 16.6458 41.8711 16.6458H29.7745C30.3737 14.8265 31.3333 11.4915 31.3333 8.81249C31.3333 4.56487 27.7241 0.979187 25.4583 0.979187C23.4256 0.979187 21.9705 2.12481 21.9098 2.17181C21.6767 2.35788 21.5416 2.63988 21.5416 2.93749V9.57817L15.8997 21.7962L15.6666 21.9157V21.5416C15.6666 21.0011 15.2279 20.5624 14.6874 20.5624H4.8958C2.19532 20.5625 0 22.7578 0 25.4583V41.125C0 43.8256 2.19532 46.0208 4.8958 46.0208H10.7708C12.8877 46.0208 14.6972 44.6696 15.3787 42.7837C17.0081 43.6219 19.2014 44.0625 20.5625 44.0625H38.5381C40.6707 44.0625 42.537 42.625 42.9756 40.6432C43.2008 39.621 43.0696 38.5929 42.6231 37.6999C44.0684 36.9733 45.0417 35.4791 45.0417 33.7812C45.0417 33.088 44.8831 32.4241 44.5834 31.8249C46.0287 31.0964 47 29.6041 47 27.9062ZM42.8699 30.3228C42.4919 30.3679 42.1727 30.6244 42.0513 30.9867C41.9319 31.349 42.0318 31.7465 42.3098 32.0089C42.8073 32.477 43.0834 33.1075 43.0834 33.7812C43.0834 35.0169 42.1493 36.0549 40.9136 36.1978C40.5357 36.2429 40.2164 36.4994 40.095 36.8617C39.9756 37.224 40.0755 37.6215 40.3535 37.8839C40.9979 38.491 41.2564 39.3429 41.0625 40.2202C40.8216 41.313 39.7602 42.1042 38.5382 42.1042H20.5625C18.9723 42.1042 16.3051 41.3581 15.3808 40.4317C15.1007 40.1537 14.6777 40.0714 14.3134 40.2202C13.9473 40.3711 13.7083 40.7294 13.7083 41.125C13.7083 42.7446 12.3904 44.0625 10.7708 44.0625H4.8958C3.27623 44.0625 1.9583 42.7446 1.9583 41.125V25.4583C1.9583 23.8387 3.27623 22.5208 4.8958 22.5208H13.7083V23.5C13.7083 23.8388 13.8846 24.154 14.1744 24.3342C14.4603 24.5065 14.8206 24.5242 15.1261 24.3754L17.0844 23.3962C17.2822 23.2982 17.4409 23.1337 17.5349 22.932L23.4099 10.2028C23.4686 10.0736 23.4999 9.9326 23.4999 9.7916V3.46817C23.9073 3.24299 24.6143 2.93749 25.4583 2.93749C26.5315 2.93749 29.375 5.60474 29.375 8.81249C29.375 12.2592 27.4989 17.2274 27.4813 17.2764C27.3678 17.5761 27.4069 17.9149 27.589 18.1812C27.7731 18.4456 28.0747 18.6042 28.3958 18.6042H41.8711C43.5044 18.6042 44.8909 19.7733 45.0279 21.2656C45.1317 22.3818 44.5951 23.4433 43.6336 24.0366C43.334 24.2207 43.1558 24.5536 43.1695 24.9081C43.1832 25.2625 43.3869 25.5797 43.7002 25.7423C44.5286 26.1634 45.0416 26.9937 45.0416 27.9062C45.0417 29.1419 44.1076 30.1799 42.8699 30.3228Z" fill="white"/>
<path d="M14.6875 22.5208C14.147 22.5208 13.7083 22.9595 13.7083 23.5V41.125C13.7083 41.6655 14.147 42.1042 14.6875 42.1042C15.228 42.1042 15.6667 41.6655 15.6667 41.125V23.5C15.6667 22.9595 15.228 22.5208 14.6875 22.5208Z" fill="white"/>
</g>
<defs>
<clipPath id="clip0_1_360">
<rect width="47" height="47" fill="white"/>
</clipPath>
</defs>
</svg>
